<svg width="1122" height="335" viewBox="0 0 1122 335" fill="none" xmlns="http://www.w3.org/2000/svg">
<g style="mix-blend-mode:multiply">
<path d="M97.3966 156.18L76.3194 175.701L97.4348 201.151L97.4828 257.694L121.506 257.65L121.539 296.615L72.7601 296.704L33.9087 257.809L33.8607 201.266L12.8943 178.746L33.8225 156.296L33.7743 99.6064L72.5596 60.7176L121.339 60.629L121.372 99.4474L97.3484 99.491L97.3966 156.18ZM949.641 154.634L970.752 174.078L949.679 199.604L949.728 256.147L925.704 256.191L925.737 295.156L974.516 295.067L1013.3 256.032L1013.25 199.489L1034.18 176.892L1013.22 154.518L1013.17 97.8288L974.316 59.0809L925.537 59.1694L925.57 97.9878L949.593 97.9442L949.641 154.634Z" fill="#D9D9D9"/>
<path d="M252.167 81.1924L406.268 80.9127L406.4 236.479L367.615 275.368L341.687 275.415L341.558 123.364L252.203 123.526L252.167 81.1924ZM295.951 236.68L331.4 236.615L331.433 275.434L267.713 275.549L228.715 236.802L228.679 194.175L295.915 194.053L295.951 236.68ZM499.271 235.578L523.587 235.534L523.621 275.085L473.816 275.175L434.379 236.428L434.28 119.68L473.651 80.7904L523.455 80.7L523.489 120.104L499.173 120.148L499.271 235.578ZM558.499 120.041L533.743 120.086L533.709 80.6814L583.953 80.5902L623.244 119.337L623.343 236.085L584.119 274.975L533.874 275.066L533.841 235.515L558.597 235.47L558.499 120.041ZM698.324 212.951L632.293 80.5025L695.867 80.3871L763.22 217.374L763.269 274.65L698.376 274.768L698.324 212.951ZM767.31 203.744L735.762 139.934L767.644 80.2568L829.9 80.1438L767.31 203.744Z" fill="black"/>
</g>
</svg>
